<?xml version="1.0" standalone="no"?>
<!DOCTYPE svg PUBLIC "-//W3C//DTD SVG 20010904//EN"
 "http://www.w3.org/TR/2001/REC-SVG-20010904/DTD/svg10.dtd">
<svg version="1.0" xmlns="http://www.w3.org/2000/svg"
 width="748.000000pt" height="748.000000pt" viewBox="0 0 748.000000 748.000000"
 preserveAspectRatio="xMidYMid meet">
<metadata>
Created by potrace 1.14, written by Peter Selinger 2001-2017
</metadata>
<g transform="translate(0.000000,748.000000) scale(0.100000,-0.100000)"
fill="#000000" stroke="none">
<path d="M2808 7365 c-3 -3 -33 -10 -67 -16 -34 -5 -70 -13 -79 -18 -76 -37
-146 -44 -241 -23 -29 7 -98 12 -152 12 -114 0 -151 -13 -217 -75 l-43 -40
-93 2 c-51 1 -106 7 -122 13 -16 6 -65 14 -110 17 -99 7 -122 -5 -154 -80 -31
-72 -40 -80 -154 -138 -99 -50 -166 -100 -166 -125 0 -33 -27 -64 -76 -90 -83
-43 -139 -107 -168 -189 -39 -112 -47 -163 -44 -285 3 -114 2 -116 -31 -180
-45 -84 -53 -183 -23 -275 l19 -60 -27 -50 c-16 -27 -35 -80 -44 -117 -18 -74
-18 -74 34 -151 28 -42 29 -46 32 -197 3 -152 4 -157 36 -225 18 -38 39 -77
47 -85 36 -40 45 -100 45 -320 0 -118 5 -235 11 -259 5 -25 14 -79 19 -120 12
-102 41 -270 75 -441 9 -47 20 -103 25 -125 4 -22 15 -73 24 -114 12 -54 14
-83 7 -105 -6 -17 -13 -53 -17 -79 -6 -47 -34 -87 -60 -87 -21 0 -64 -41 -84
-81 -23 -44 -28 -185 -9 -266 30 -131 74 -283 114 -393 13 -36 31 -92 41 -125
9 -33 22 -71 29 -85 7 -14 21 -52 31 -85 10 -33 22 -65 26 -70 4 -6 28 -53 54
-105 25 -52 57 -110 71 -128 36 -48 93 -80 149 -84 46 -3 49 -5 59 -40 5 -20
13 -40 18 -44 4 -4 7 -17 7 -29 0 -12 11 -43 25 -69 14 -26 25 -53 25 -60 0
-21 94 -206 145 -286 121 -187 311 -402 419 -474 28 -18 60 -44 71 -56 11 -12
43 -37 70 -56 28 -18 75 -54 105 -79 30 -25 69 -52 85 -60 17 -9 55 -34 85
-56 30 -23 87 -61 125 -87 39 -25 85 -58 103 -74 18 -15 38 -28 44 -28 5 0 25
-12 44 -28 56 -46 86 -67 154 -107 36 -21 74 -46 85 -56 25 -20 156 -83 216
-103 119 -40 405 -57 578 -35 202 25 281 42 376 79 11 4 40 13 65 20 157 44
331 130 442 221 72 58 232 231 327 353 13 17 45 54 71 81 26 28 62 70 80 95
19 25 50 64 69 87 20 23 56 69 81 103 25 34 64 84 88 112 23 29 42 55 42 59 0
4 16 26 35 49 19 23 35 48 35 54 0 7 9 21 21 32 11 10 32 42 45 70 13 29 31
57 39 64 8 7 26 37 41 69 14 31 32 69 40 85 8 16 14 34 14 40 0 6 7 25 16 41
26 49 82 215 119 350 45 168 66 238 81 280 8 23 14 46 14 53 0 7 9 31 19 55
11 23 27 69 35 102 21 83 50 107 125 105 97 -4 107 -1 155 41 49 44 100 135
112 203 4 22 13 51 20 65 8 14 14 49 14 76 0 28 5 56 11 62 13 13 19 497 8
628 -16 190 -106 382 -202 432 -81 41 -128 35 -191 -28 -57 -58 -70 -53 -85
34 -7 39 -17 110 -21 157 -13 123 -29 247 -41 308 -6 29 -15 86 -20 125 -17
145 -28 223 -39 282 -6 33 -20 112 -31 175 -32 182 -35 194 -47 217 -7 12 -12
34 -12 48 0 30 -28 125 -41 139 -5 6 -9 18 -9 28 0 9 -6 32 -14 50 -8 18 -21
49 -30 70 -9 20 -16 39 -16 42 0 12 -91 145 -132 193 -44 53 -160 153 -176
153 -5 0 -30 22 -55 48 -36 40 -47 60 -57 108 -6 32 -16 69 -21 82 -5 13 -9
36 -9 53 0 17 -14 56 -31 87 -32 59 -68 97 -132 138 -37 25 -54 37 -111 85
-17 15 -58 41 -91 58 -33 18 -64 36 -69 42 -6 5 -17 9 -25 9 -9 0 -29 7 -46
16 -61 33 -244 81 -410 109 -95 16 -189 41 -231 63 -22 11 -75 30 -119 42
-193 55 -252 71 -350 91 -55 12 -122 25 -150 30 -69 11 -323 11 -343 0 -15 -8
-66 1 -122 21 -67 25 -316 49 -332 33z"/>
</g>
</svg>
