<?xml version="1.0" standalone="no"?>
<!DOCTYPE svg PUBLIC "-//W3C//DTD SVG 20010904//EN"
 "http://www.w3.org/TR/2001/REC-SVG-20010904/DTD/svg10.dtd">
<svg version="1.0" xmlns="http://www.w3.org/2000/svg"
 width="1100.000000pt" height="1100.000000pt" viewBox="0 0 1100.000000 1100.000000"
 preserveAspectRatio="xMidYMid meet">
<metadata>
Created by potrace 1.14, written by Peter Selinger 2001-2017
</metadata>
<g transform="translate(0.000000,1100.000000) scale(0.100000,-0.100000)"
fill="#000000" stroke="none">
<path d="M2100 5438 l0 -3928 2591 2 2591 3 34 90 c19 50 47 124 63 165 16 41
68 179 116 305 119 312 155 406 165 430 5 11 25 65 46 120 20 55 47 127 60
160 12 33 53 139 89 235 37 96 77 202 90 235 13 33 103 269 200 525 97 256
187 492 200 525 13 33 56 146 95 250 40 105 90 237 112 295 22 58 55 143 73
190 17 47 36 94 40 105 4 11 9 25 11 30 1 6 45 123 98 260 53 138 108 282 122
320 15 39 30 79 35 90 5 11 67 175 139 365 72 190 135 356 141 370 6 14 31 78
55 142 24 65 152 402 285 750 133 348 252 660 264 693 50 135 181 478 195 510
4 11 13 36 20 55 7 19 16 44 21 55 8 19 126 329 189 498 16 42 28 78 27 78
-14 7 -210 2 -216 -6 -4 -5 -22 -46 -39 -90 -39 -101 -193 -507 -245 -645
-153 -405 -407 -1075 -417 -1095 -5 -11 -23 -58 -40 -105 -33 -86 -260 -684
-351 -925 -28 -71 -66 -173 -85 -225 -19 -52 -39 -104 -44 -115 -5 -11 -60
-153 -121 -315 -61 -162 -119 -314 -130 -337 -10 -24 -19 -46 -19 -50 0 -5
-29 -84 -65 -178 -62 -160 -159 -416 -210 -550 -13 -33 -85 -222 -160 -420
-76 -198 -151 -394 -166 -435 -28 -77 -229 -606 -298 -785 -22 -55 -67 -174
-101 -265 -34 -91 -66 -174 -70 -185 -11 -26 -129 -333 -220 -575 -86 -229
-103 -268 -116 -263 -8 3 -14 9 -14 13 0 5 -51 138 -114 297 -62 158 -146 371
-185 473 -40 102 -78 199 -86 215 -7 17 -16 41 -20 55 -4 14 -16 43 -25 65
-10 22 -37 90 -60 150 -23 61 -46 119 -51 130 -10 24 -191 484 -223 570 -13
33 -68 175 -124 315 -55 140 -146 372 -202 515 -56 143 -137 350 -180 460 -44
110 -118 299 -165 420 -116 294 -223 567 -295 750 -230 587 -336 857 -435
1110 -63 160 -153 389 -200 510 -47 121 -90 229 -94 240 -5 11 -46 115 -91
230 -44 116 -85 219 -90 230 -5 11 -30 74 -56 140 -25 66 -75 194 -110 285
-36 91 -84 212 -106 270 -23 58 -45 110 -49 115 -6 8 -196 13 -205 6 -1 -1 40
-108 90 -238 51 -131 128 -328 170 -438 43 -110 83 -213 91 -230 7 -16 32 -79
55 -140 23 -60 75 -193 115 -295 39 -102 111 -286 160 -410 132 -341 156 -403
166 -425 5 -11 22 -56 39 -100 17 -44 35 -89 39 -100 5 -11 28 -69 51 -130 23
-60 48 -123 55 -140 7 -16 22 -55 34 -85 11 -30 60 -154 107 -275 104 -267
128 -328 129 -335 0 -3 11 -27 23 -54 12 -27 22 -52 22 -55 0 -7 60 -162 80
-206 13 -29 164 -419 165 -425 0 -3 29 -76 63 -163 34 -86 89 -228 123 -315
33 -86 65 -166 70 -177 4 -11 40 -103 80 -205 39 -102 77 -198 84 -215 7 -16
47 -120 90 -230 42 -110 83 -214 90 -230 8 -17 27 -67 44 -110 16 -44 68 -179
116 -300 93 -237 172 -440 364 -935 68 -173 129 -330 137 -347 23 -50 45 -116
40 -120 -2 -3 -3509 -5 -4247 -3 l-36 0 -1 3703 c0 2036 -1 3709 -1 3717 -1
13 -35 15 -241 15 l-240 0 0 -3927z"/>
</g>
</svg>
